<svg width="60" height="60" viewBox="0 0 60 60" fill="none" xmlns="http://www.w3.org/2000/svg">
<path d="M30.005 52.6025C23.855 52.6025 23.13 52.57 20.73 52.465C18.8584 52.4035 17.0111 52.023 15.2675 51.34C12.2508 50.166 9.86536 47.7797 8.69251 44.7625C8.03577 43.0126 7.68155 41.1637 7.645 39.295C7.505 36.9 7.505 36.115 7.505 30.0125C7.505 23.845 7.5375 23.125 7.645 20.7375C7.68235 18.8713 8.03656 17.025 8.69251 15.2775C9.86408 12.2563 12.2534 9.86793 15.275 8.6975C17.0216 8.03801 18.8684 7.68286 20.735 7.6475C23.1225 7.5125 23.9075 7.5125 30.005 7.5125C36.205 7.5125 36.9175 7.545 39.28 7.6475C41.1515 7.68317 43.0031 8.03827 44.755 8.6975C47.7758 9.86926 50.1646 12.2572 51.3375 15.2775C52.0053 17.0505 52.3614 18.9256 52.39 20.82C52.53 23.215 52.53 23.9975 52.53 30.0975C52.53 36.1975 52.495 36.9975 52.39 39.365C52.3528 41.2355 51.9977 43.0861 51.34 44.8375C50.1642 47.8568 47.7752 50.2439 44.755 51.4175C43.0056 52.073 41.1578 52.4272 39.29 52.465C36.9025 52.6025 36.12 52.6025 30.005 52.6025ZM29.92 11.47C23.805 11.47 23.17 11.5 20.7825 11.6075C19.3575 11.6264 17.9462 11.8894 16.61 12.385C14.6369 13.14 13.0756 14.695 12.3125 16.665C11.813 18.0157 11.55 19.4424 11.535 20.8825C11.4025 23.305 11.4025 23.94 11.4025 30.0125C11.4025 36.0125 11.425 36.74 11.535 39.1475C11.5574 40.573 11.8202 41.9845 12.3125 43.3225C13.0767 45.2912 14.6377 46.845 16.61 47.6C17.9453 48.0989 19.3571 48.362 20.7825 48.3775C23.2025 48.5175 23.84 48.5175 29.92 48.5175C36.0525 48.5175 36.6875 48.4875 39.055 48.3775C40.481 48.3601 41.8934 48.0971 43.23 47.6C45.1912 46.8385 46.7423 45.2882 47.505 43.3275C48.0035 41.9756 48.2665 40.5483 48.2825 39.1075H48.31C48.4175 36.7175 48.4175 36.08 48.4175 29.9725C48.4175 23.865 48.39 23.2225 48.2825 20.835C48.2601 19.4111 47.9972 18.0013 47.505 16.665C46.7441 14.7014 45.1927 13.1482 43.23 12.385C41.8936 11.8869 40.4811 11.6238 39.055 11.6075C36.6375 11.47 36.005 11.47 29.92 11.47ZM30.005 41.56C25.33 41.563 21.1136 38.7493 19.3222 34.4311C17.5308 30.1129 18.5173 25.1408 21.8216 21.8337C25.1259 18.5265 30.0972 17.5357 34.4169 19.3233C38.7366 21.111 41.554 25.325 41.555 30C41.5481 36.3777 36.3827 41.5476 30.005 41.56ZM30.005 22.495C25.8629 22.495 22.505 25.8529 22.505 29.995C22.505 34.1371 25.8629 37.495 30.005 37.495C34.1471 37.495 37.505 34.1371 37.505 29.995C37.4954 25.8569 34.1432 22.5046 30.005 22.495ZM42.005 20.7125C40.5186 20.707 39.3173 19.499 39.32 18.0125C39.3228 16.5261 40.5285 15.3225 42.015 15.3225C43.5015 15.3225 44.7072 16.5261 44.71 18.0125C44.7107 18.7297 44.4257 19.4176 43.9182 19.9242C43.4106 20.4308 42.7222 20.7145 42.005 20.7125Z" fill="black"/>
</svg>
