<svg width="60" height="60" viewBox="0 0 60 60" fill="none" xmlns="http://www.w3.org/2000/svg">
<path d="M49.9875 16.72C52.2286 15.3802 53.9055 13.2706 54.705 10.785C52.5992 12.0345 50.2951 12.9147 47.8925 13.3875C44.5615 9.86382 39.2838 9.00632 35.0085 11.2941C30.7333 13.582 28.5188 18.4487 29.6025 23.175C20.9766 22.7419 12.94 18.6673 7.49254 11.965C4.64964 16.8686 6.10242 23.137 10.8125 26.29C9.10931 26.2352 7.44386 25.7741 5.95504 24.945C5.95504 24.99 5.95504 25.035 5.95504 25.08C5.95602 30.1879 9.55597 34.5877 14.5625 35.6C12.9827 36.0298 11.3256 36.0931 9.71754 35.785C11.1255 40.1532 15.1514 43.1457 19.74 43.235C15.9396 46.2178 11.2462 47.8354 6.41504 47.8275C5.55872 47.8287 4.70306 47.7795 3.85254 47.68C8.75851 50.8326 14.4685 52.5059 20.3 52.5C28.4132 52.5557 36.2101 49.3573 41.9469 43.62C47.6836 37.8828 50.8814 30.0856 50.825 21.9725C50.825 21.5075 50.8142 21.045 50.7925 20.585C52.8937 19.0665 54.7071 17.1854 56.1475 15.03C54.1901 15.8977 52.1137 16.4673 49.9875 16.72Z" fill="white"/>
</svg>
